<mxfile host="app.diagrams.net" modified="2022-06-02T02:09:38.221Z" agent="5.0 (Macintosh; Intel Mac OS X 10_15_7) AppleWebKit/605.1.15 (KHTML, like Gecko) Version/15.4 Safari/605.1.15" etag="llyOHGLD9wHwf_DVgIzp" version="18.2.0" type="github">
  <diagram id="K-6zNc9MQmDpb7SjbywQ" name="Page-1">
    <mxGraphModel dx="1185" dy="825" grid="1" gridSize="10" guides="1" tooltips="1" connect="1" arrows="1" fold="1" page="1" pageScale="1" pageWidth="827" pageHeight="1169" math="0" shadow="0">
      <root>
        <mxCell id="0" />
        <mxCell id="1" parent="0" />
        <mxCell id="5iFoTVhNtvqUuFLG-qUk-3" value="" style="edgeStyle=orthogonalEdgeStyle;rounded=0;orthogonalLoop=1;jettySize=auto;html=1;" edge="1" parent="1" source="5iFoTVhNtvqUuFLG-qUk-1" target="5iFoTVhNtvqUuFLG-qUk-2">
          <mxGeometry relative="1" as="geometry" />
        </mxCell>
        <mxCell id="5iFoTVhNtvqUuFLG-qUk-6" style="edgeStyle=orthogonalEdgeStyle;rounded=0;orthogonalLoop=1;jettySize=auto;html=1;entryX=0;entryY=0.5;entryDx=0;entryDy=0;" edge="1" parent="1" source="5iFoTVhNtvqUuFLG-qUk-1" target="5iFoTVhNtvqUuFLG-qUk-4">
          <mxGeometry relative="1" as="geometry" />
        </mxCell>
        <mxCell id="5iFoTVhNtvqUuFLG-qUk-1" value="(TCP80)Nginx" style="whiteSpace=wrap;html=1;aspect=fixed;" vertex="1" parent="1">
          <mxGeometry x="110" y="270" width="80" height="80" as="geometry" />
        </mxCell>
        <mxCell id="5iFoTVhNtvqUuFLG-qUk-5" value="" style="edgeStyle=orthogonalEdgeStyle;rounded=0;orthogonalLoop=1;jettySize=auto;html=1;" edge="1" parent="1" source="5iFoTVhNtvqUuFLG-qUk-2" target="5iFoTVhNtvqUuFLG-qUk-4">
          <mxGeometry relative="1" as="geometry" />
        </mxCell>
        <mxCell id="5iFoTVhNtvqUuFLG-qUk-8" value="" style="edgeStyle=orthogonalEdgeStyle;rounded=0;orthogonalLoop=1;jettySize=auto;html=1;" edge="1" parent="1" source="5iFoTVhNtvqUuFLG-qUk-2" target="5iFoTVhNtvqUuFLG-qUk-7">
          <mxGeometry relative="1" as="geometry" />
        </mxCell>
        <mxCell id="5iFoTVhNtvqUuFLG-qUk-9" style="edgeStyle=orthogonalEdgeStyle;rounded=0;orthogonalLoop=1;jettySize=auto;html=1;entryX=0;entryY=0.5;entryDx=0;entryDy=0;" edge="1" parent="1" source="5iFoTVhNtvqUuFLG-qUk-2" target="5iFoTVhNtvqUuFLG-qUk-10">
          <mxGeometry relative="1" as="geometry">
            <mxPoint x="410" y="430" as="targetPoint" />
          </mxGeometry>
        </mxCell>
        <mxCell id="5iFoTVhNtvqUuFLG-qUk-2" value="(TCP 5000)&lt;br&gt;Express Server" style="whiteSpace=wrap;html=1;aspect=fixed;" vertex="1" parent="1">
          <mxGeometry x="270" y="270" width="80" height="80" as="geometry" />
        </mxCell>
        <mxCell id="5iFoTVhNtvqUuFLG-qUk-4" value="(TCP 3000)&lt;br&gt;React Server" style="whiteSpace=wrap;html=1;aspect=fixed;" vertex="1" parent="1">
          <mxGeometry x="270" y="110" width="80" height="80" as="geometry" />
        </mxCell>
        <mxCell id="5iFoTVhNtvqUuFLG-qUk-13" value="" style="edgeStyle=orthogonalEdgeStyle;rounded=0;orthogonalLoop=1;jettySize=auto;html=1;" edge="1" parent="1" source="5iFoTVhNtvqUuFLG-qUk-7" target="5iFoTVhNtvqUuFLG-qUk-11">
          <mxGeometry relative="1" as="geometry">
            <Array as="points">
              <mxPoint x="490" y="260" />
              <mxPoint x="490" y="260" />
            </Array>
          </mxGeometry>
        </mxCell>
        <mxCell id="5iFoTVhNtvqUuFLG-qUk-7" value="Redis" style="whiteSpace=wrap;html=1;aspect=fixed;" vertex="1" parent="1">
          <mxGeometry x="430" y="270" width="80" height="80" as="geometry" />
        </mxCell>
        <mxCell id="5iFoTVhNtvqUuFLG-qUk-10" value="Postgres" style="whiteSpace=wrap;html=1;aspect=fixed;" vertex="1" parent="1">
          <mxGeometry x="430" y="400" width="80" height="80" as="geometry" />
        </mxCell>
        <mxCell id="5iFoTVhNtvqUuFLG-qUk-12" value="" style="edgeStyle=orthogonalEdgeStyle;rounded=0;orthogonalLoop=1;jettySize=auto;html=1;" edge="1" parent="1" source="5iFoTVhNtvqUuFLG-qUk-11" target="5iFoTVhNtvqUuFLG-qUk-7">
          <mxGeometry relative="1" as="geometry">
            <Array as="points">
              <mxPoint x="450" y="240" />
              <mxPoint x="450" y="240" />
            </Array>
          </mxGeometry>
        </mxCell>
        <mxCell id="5iFoTVhNtvqUuFLG-qUk-11" value="Worker" style="whiteSpace=wrap;html=1;aspect=fixed;" vertex="1" parent="1">
          <mxGeometry x="430" y="150" width="80" height="80" as="geometry" />
        </mxCell>
      </root>
    </mxGraphModel>
  </diagram>
</mxfile>
